# Blender v2.77 (sub 0) OBJ File: ''
# www.blender.org
mtllib Debris.mtl
o debris02_debris02-geometry.004
v -5.747777 -5.432413 0.128776
v -6.118239 -4.265930 -0.795363
v -6.188258 -4.892578 -0.234007
v -5.587414 -3.943905 -1.276594
v -5.127345 -4.450100 -0.877362
v -5.197362 -5.076748 -0.316006
v -5.944702 -5.776646 -1.519353
v -6.255405 -6.631081 -6.973596
v -6.827200 -6.524806 -6.926279
v -6.511342 -6.193116 -7.389860
v -6.670717 -7.101572 -7.275377
vt 0.2911 0.6275
vt 0.2636 0.7090
vt 0.2584 0.6652
vt 0.2951 0.6100
vt 0.3129 0.7194
vt 0.2542 0.6957
vt 0.3636 0.6822
vt 0.3319 0.6523
vt 0.3371 0.6961
vt 0.0548 0.5530
vt 0.0908 0.5898
vt 0.0788 0.5434
vt 0.0982 0.5386
vt 0.3042 0.7615
vt 0.3447 0.7530
vt 0.4788 0.7320
vt 0.3151 0.7702
vt 0.0556 0.7538
vt 0.0405 0.5635
vt 0.3289 0.7856
vt 0.4890 0.7428
vt 0.3388 0.7981
vt 0.0412 0.7637
vt 0.0686 0.7699
vt 0.4862 0.7204
vn 0.1791 0.6453 0.7427
vn 0.2559 0.6489 0.7165
vn 0.1114 0.6759 0.7286
vn 0.1834 0.6445 0.7423
vn -0.6124 0.6644 0.4285
vn -0.3241 -0.9238 0.2039
vn -0.7313 0.2505 0.6344
vn -0.0074 -0.4341 0.9008
vn 0.9236 -0.2658 -0.2762
vn 0.8162 -0.0527 0.5753
vn -0.9891 0.1032 -0.1055
vn 0.1725 0.9849 0.0147
vn 0.8232 0.4735 0.3133
vn 0.0226 0.5448 -0.8383
vn -0.2012 -0.8096 -0.5514
usemtl bomber2T-03a-mat
s off
f 1/1/1 2/2/1 3/3/1
f 1/4/2 4/5/2 2/6/2
f 1/4/3 5/7/3 4/5/3
f 1/1/4 6/8/4 5/9/4
s 1
f 2/10/5 7/11/6 3/12/7
f 3/12/7 7/11/6 1/13/8
f 1/14/8 7/15/6 8/16/9 6/17/10
f 2/10/5 9/18/11 7/11/6
f 4/19/12 9/18/11 2/10/5
f 5/20/13 10/21/14 4/22/12
f 6/17/10 8/16/9 5/20/13
f 4/19/12 10/23/14 9/18/11
f 5/20/13 8/16/9 10/21/14
f 11/24/15 7/11/6 9/18/11
f 11/25/15 8/16/9 7/15/6
f 11/24/15 9/18/11 10/23/14
f 11/25/15 10/21/14 8/16/9
o debris02_debris02-geometry.003
v 3.942517 -1.927397 -5.127353
v 4.278154 -3.333084 -5.124795
v 5.656456 -3.465309 -5.123545
v 7.152116 -3.334060 -5.123545
v 3.942518 -1.076188 -5.214545
v 7.680655 0.177054 -5.496893
v 7.680655 -1.904843 -5.126102
v 4.280388 1.535792 -7.269216
v 5.637798 1.677370 -7.267967
v 7.194494 1.534819 -7.267967
v 4.733150 -3.141412 -8.322857
v 4.280106 -1.369304 -8.664783
v 5.637797 -3.380569 -8.321609
v 4.280106 -0.180508 -11.172510
v 6.701021 -3.142389 -8.321609
v 7.154067 -1.370280 -8.663532
v 4.727558 0.443056 -12.016336
v 7.154067 -0.181485 -11.171261
v 5.632204 0.680260 -12.015088
v 6.695426 0.442079 -12.015088
vt 0.2572 0.6689
vt 0.2643 0.6470
vt 0.2937 0.6450
vt 0.3256 0.6470
vt 0.2572 0.6821
vt 0.3369 0.7015
vt 0.3369 0.6692
vt 0.2644 0.7226
vt 0.2933 0.7248
vt 0.3266 0.7226
vt 0.4793 0.0981
vt 0.5027 0.1791
vt 0.4678 0.1791
vt 0.4590 0.8922
vt 0.3720 0.8439
vt 0.3784 0.8948
vt 0.4506 0.8486
vt 0.1418 0.0918
vt 0.1262 0.1528
vt 0.1729 0.0836
vt 0.5022 0.0982
vt 0.5234 0.9305
vt 0.3806 0.9158
vt 0.5406 0.1791
vt 0.7015 0.6614
vt 0.6768 0.5708
vt 0.7035 0.5843
vt 0.6592 0.6711
vt 0.6073 0.5858
vt 0.5291 0.0982
vt 0.2251 0.1527
vt 0.2095 0.0918
vt 0.5441 0.9458
vt 0.4247 0.9636
vt 0.5989 0.7176
vt 0.5636 0.6157
vt 0.2251 0.1937
vt 0.1262 0.1937
vt 0.9399 0.7483
vt 0.9744 0.6274
vt 0.9398 0.6273
vt 0.1728 0.2233
vt 0.1416 0.2151
vt 0.9630 0.7484
vt 0.9128 0.7483
vt 0.9001 0.6273
vt 0.5861 0.7437
vt 0.2093 0.2151
vn -0.0007 0.0016 1.0000
vn -0.0002 0.0023 1.0000
vn 0.0421 0.0999 0.9941
vn -0.4249 0.1587 0.8912
vn -0.1510 0.6232 0.7674
vn -0.0753 0.7163 0.6937
vn 0.0734 0.8011 0.5940
vn -0.5283 -0.6239 -0.5758
vn -0.0138 -0.7410 0.6713
vn -0.5600 -0.6213 0.5480
vn -0.7194 -0.5136 -0.4676
vn -0.7410 -0.0613 0.6687
vn -0.0275 -0.7894 -0.6133
vn -0.8190 -0.2855 -0.4977
vn -0.6889 0.2582 0.6773
vn 0.5355 -0.6111 0.5829
vn 0.5140 -0.6213 -0.5914
vn 0.6287 -0.0516 0.7759
vn 0.7580 -0.4540 -0.4684
vn 0.6704 0.3981 0.6261
vn -0.4578 0.0399 -0.8882
vn -0.6483 0.7319 0.2098
vn 0.7346 -0.4224 -0.5309
vn 0.5775 0.8081 0.1161
vn 0.0041 0.3511 -0.9363
vn -0.0186 0.9685 0.2482
vn 0.4043 0.0884 -0.9104
usemtl bomber2T-03a-mat
s off
f 12/26/16 13/27/16 14/28/16
f 12/26/17 14/28/17 15/29/17
f 16/30/18 12/26/18 15/29/18 17/31/18
f 15/29/19 18/32/19 17/31/19
f 17/31/20 19/33/20 16/30/20
f 17/31/21 20/34/21 19/33/21
f 17/31/22 21/35/22 20/34/22
s 1
f 22/36/23 14/37/24 13/38/25
f 23/39/26 13/40/25 12/41/27
f 22/42/23 13/40/25 23/39/26
f 22/43/23 23/44/26 24/45/28
f 24/46/28 14/37/24 22/36/23
f 25/47/29 12/41/27 16/48/30
f 23/39/26 12/41/27 25/47/29
f 24/46/28 15/49/31 14/37/24
f 26/50/32 18/51/33 15/52/31
f 27/53/34 17/54/35 18/51/33
f 26/55/32 15/49/31 24/46/28
f 24/45/28 27/56/34 26/57/32
f 27/53/34 18/51/33 26/50/32
f 28/58/36 16/48/30 19/59/37
f 29/60/38 17/54/35 27/53/34
f 29/60/38 21/61/39 17/54/35
f 24/45/28 23/44/26 27/56/34
f 25/47/29 16/48/30 28/58/36
f 29/62/38 27/56/34 23/44/26 25/63/29
f 30/64/40 19/65/37 20/66/41
f 30/67/40 25/63/29 28/68/36
f 29/62/38 25/63/29 30/67/40
f 28/69/36 19/65/37 30/64/40
f 31/70/42 20/66/41 21/71/39
f 31/72/42 21/61/39 29/60/38
f 29/62/38 30/67/40 31/73/42
f 30/64/40 20/66/41 31/70/42
o debris02_debris02-geometry.002
v -0.338610 -2.245020 11.825146
v 0.106152 -1.997698 12.294031
v -0.338610 -0.794525 11.783143
v -0.643909 0.008480 10.625966
v -0.755657 0.660437 9.131994
v -0.317858 -2.640985 11.041935
v -0.429606 -2.775881 10.196370
v -0.338610 -2.173721 8.898187
v -0.317858 -2.524617 9.377809
v -0.643909 1.339018 4.886325
v -1.352354 -2.591057 4.954600
v 1.834544 -0.478356 6.127847
v 2.134048 -1.199660 6.077407
v 1.834544 -1.920964 6.026968
v 2.004690 -2.193339 4.982857
v 0.106152 -2.594245 4.940284
v 1.564658 -2.597432 4.954599
v 1.325062 0.784457 3.125119
v 0.106152 1.418629 4.823199
v 0.856213 1.332642 4.886324
v 1.385008 0.805135 4.849438
v 0.106152 -2.916881 11.008774
v 0.106152 -2.359683 11.803259
v 0.550914 -2.251395 11.825144
v 0.106152 -0.686238 11.776848
v 0.550914 -0.800900 11.783141
v 0.106152 -3.081647 10.161122
v 0.530162 -2.647360 11.041932
v 0.856213 -1.946839 11.846440
v 1.058957 -2.119853 11.078820
v 0.967961 -1.521487 11.732752
v 1.375885 -1.427156 11.127259
v 1.385008 -0.525402 10.589078
v 0.641910 -2.782256 10.196368
v 1.218992 -2.130277 10.246849
v 1.674324 -1.421409 10.267069
v 0.106152 0.146328 10.621738
v 0.856213 0.002104 10.625965
v 0.967961 0.654061 9.131993
v 1.578560 0.044949 9.089400
v 0.106152 -2.800513 9.344649
v 0.106152 -2.288384 8.876303
v 0.530162 -2.530992 9.377808
v 0.550914 -2.180096 8.898187
v 0.856214 -1.875540 8.919483
v 0.106152 0.752195 9.124543
vt 0.2648 0.6484
vt 0.2559 0.6597
vt 0.2627 0.6828
vt 0.2808 0.6996
vt 0.3046 0.7082
vt 0.2766 0.6408
vt 0.2878 0.6408
vt 0.3169 0.6498
vt 0.3053 0.6339
vt 0.3731 0.7238
vt 0.3721 0.6483
vt 0.3233 0.6846
vt 0.3636 0.6713
vt 0.3482 0.6396
vt 0.3254 0.6244
vt 0.3723 0.6482
vt 0.3117 0.6070
vt 0.2491 0.6072
vt 0.4083 0.7105
vt 0.9883 0.1300
vt 0.9883 0.1300
vt 0.9883 0.1300
vt 0.3014 0.7308
vt 0.9883 0.1300
vt 0.9883 0.1300
vt 0.9883 0.0063
vt 0.9883 0.0288
vt 0.9883 0.0496
vt 0.9579 0.0343
vt 0.9579 0.0343
vt 0.9702 0.0090
vt 0.9883 0.0997
vt 0.9712 0.0959
vt 0.9712 0.0959
vt 0.3635 0.5926
vt 0.3635 0.5712
vt 0.3731 0.5935
vt 0.3731 0.5935
vt 0.3759 0.5721
vt 0.9540 0.0514
vt 0.1272 0.8073
vt 0.1132 0.7917
vt 0.1364 0.7905
vt 0.1412 0.8074
vt 0.9702 0.0090
vt 0.9485 0.0694
vt 0.1505 0.8043
vt 0.1519 0.7907
vt 0.9425 0.1053
vt 0.1714 0.7777
vt 0.1092 0.7730
vt 0.3759 0.5721
vt 0.1352 0.7719
vt 0.1510 0.7715
vt 0.9607 0.1235
vt 0.9883 0.1300
vt 0.9607 0.1235
vt 0.7922 0.2765
vt 0.7951 0.2370
vt 0.8138 0.2371
vt 0.7951 0.2370
vt 0.7922 0.2765
vt 0.1824 0.7435
vt 0.3635 0.5514
vt 0.3731 0.5523
vt 0.3634 0.5333
vt 0.3731 0.5523
vt 0.3735 0.5339
vt 0.1095 0.7544
vt 0.1225 0.7419
vt 0.1350 0.7420
vt 0.3735 0.5339
vt 0.1349 0.6775
vt 0.3866 0.5344
vt 0.4203 0.4629
vt 0.3985 0.5679
vt 0.8138 0.2767
vt 0.1960 0.7438
vt 0.1875 0.7736
vt 0.3992 0.4341
vt 0.3628 0.4337
vt 0.3992 0.4341
vt 0.4103 0.4348
vt 0.1511 0.6778
vt 0.1672 0.6781
vt 0.8138 0.3906
vt 0.7951 0.3889
vt 0.1919 0.6096
vt 0.1944 0.6480
vt 0.2062 0.6482
vt 0.7951 0.3889
vn -0.7306 0.0198 0.6826
vn -0.9656 0.0075 0.2600
vn -0.9927 -0.1180 0.0264
vn -0.9890 -0.0508 0.1388
vn -0.8943 -0.3786 -0.2383
vn -0.9201 -0.3267 -0.2160
vn -0.9932 -0.1077 -0.0434
vn -0.9576 0.1766 0.2275
vn -0.0000 0.0698 -0.9976
vn 0.9864 -0.0114 0.1637
vn -0.0098 -0.0156 -0.9998
vn 0.0099 0.0590 -0.9982
vn -0.0966 0.5460 -0.8322
vn -0.6817 -0.1399 -0.7181
vn -0.1309 0.8943 -0.4280
vn 0.8129 -0.4746 -0.3375
vn 0.7047 0.7087 -0.0330
vn 0.1317 0.9559 -0.2625
vn -0.0051 -0.9460 0.3240
vn -0.0057 -0.8134 0.5817
vn -0.0857 -0.2537 0.9635
vn -0.7400 -0.4526 0.4975
vn 0.4456 -0.7103 0.5449
vn -0.8081 -0.5471 0.2182
vn 0.0040 0.6341 0.7732
vn -0.6121 0.3918 0.6869
vn 0.3926 0.5062 0.7679
vn -0.0043 -0.9980 -0.0624
vn 0.5757 -0.7686 0.2790
vn -0.8227 -0.5685 -0.0028
vn 0.7247 -0.2997 0.6205
vn 0.7796 -0.5562 0.2878
vn 0.7402 0.0794 0.6677
vn 0.8849 -0.0513 0.4629
vn 0.8096 0.4293 0.4003
vn 0.6240 -0.7796 -0.0537
vn 0.7588 -0.6509 0.0222
vn 0.9679 -0.1618 0.1923
vn -0.7673 0.5175 0.3787
vn 0.0035 0.8721 0.4894
vn 0.4279 0.7648 0.4816
vn -0.7595 0.6229 0.1876
vn 0.4272 0.8683 0.2522
vn 0.9013 0.4137 0.1285
vn -0.0042 -0.8466 -0.5322
vn -0.6850 -0.6088 -0.4001
vn -0.0065 -0.9601 -0.2795
vn 0.5955 -0.6759 -0.4343
vn -0.7540 -0.6335 -0.1737
vn 0.5233 -0.8411 -0.1368
vn 0.3069 -0.9494 -0.0662
vn 0.9067 -0.3998 0.1339
vn 0.0036 0.9646 0.2638
vn -0.7003 -0.5378 -0.4693
vn 0.0472 -0.7573 -0.6514
vn 0.3446 -0.7354 -0.5834
vn 0.7644 -0.1083 -0.6356
vn 0.8082 0.0379 -0.5877
vn 0.8919 0.4366 -0.1181
vn -0.0241 0.9914 -0.1288
vn -0.7086 0.6269 -0.3238
vn 0.3612 0.2558 -0.8967
vn 0.9082 0.4186 -0.0013
vn 0.3984 0.9170 -0.0181
usemtl bomber2T-03a-mat
s off
f 32/74/43 33/75/43 34/76/43
f 32/74/44 34/76/44 35/77/44
f 32/74/45 35/77/45 36/78/45 37/79/45
f 38/80/46 37/79/46 36/78/46
f 39/81/47 40/82/47 38/80/47
f 39/81/48 38/80/48 41/83/48
f 38/80/49 36/78/49 41/83/49
f 42/84/50 39/81/50 41/83/50
f 43/85/51 44/86/51 45/87/51
f 43/85/52 45/87/52 46/88/52
f 47/89/53 42/84/53 41/83/53
f 46/88/54 48/90/54 47/91/54
f 46/88/55 47/91/55 43/85/55
f 47/89/56 41/83/56 49/92/56
f 49/93/57 41/94/57 50/95/57
f 43/85/58 47/91/58 49/96/58
f 49/93/59 51/97/59 52/98/59
f 49/93/60 50/95/60 51/97/60
s 1
f 53/99/61 54/100/62 33/101/63 32/102/64
f 53/99/61 55/103/65 33/101/63 54/100/62
f 53/99/61 32/102/64 37/104/66
f 33/101/63 56/105/67 34/106/68
f 56/105/67 33/101/63 57/107/69
f 53/108/61 58/109/70 59/110/71
f 58/109/70 53/108/61 37/111/66
f 58/109/70 37/111/66 38/112/72
f 60/113/73 33/101/63 55/103/65
f 55/114/65 59/115/71 61/116/74 60/117/73
f 55/103/65 53/99/61 59/118/71
f 62/119/75 33/101/63 60/113/73
f 57/107/69 33/101/63 62/119/75
f 60/117/73 61/116/74 62/120/75
f 62/120/75 61/116/74 63/121/76
f 62/119/75 64/122/77 57/107/69
f 62/120/75 63/121/76 64/123/77
f 59/115/71 65/124/78 61/116/74
f 59/110/71 58/109/70 65/125/78
f 61/116/74 65/124/78 66/126/79
f 61/116/74 67/127/80 63/121/76
f 63/121/76 67/127/80 64/123/77
f 66/126/79 67/127/80 61/116/74
f 35/128/81 34/106/68 56/105/67
f 35/128/81 56/105/67 68/129/82
f 56/105/67 69/130/83 68/129/82
f 36/131/84 35/132/81 68/133/82
f 57/107/69 69/130/83 56/105/67
f 69/134/83 70/135/85 68/133/82
f 57/107/69 64/122/77 69/130/83
f 64/123/77 67/127/80 71/136/86
f 58/109/70 72/137/87 65/125/78
f 72/137/87 58/109/70 38/112/72
f 72/137/87 38/112/72 40/138/88
f 72/137/87 73/139/89 74/140/90
f 73/139/89 72/137/87 40/138/88
f 73/139/89 40/138/88 39/141/91
f 65/124/78 74/142/90 66/126/79
f 65/125/78 72/137/87 74/140/90
f 74/142/90 75/143/92 66/126/79
f 66/126/79 75/143/92 76/144/93
f 74/140/90 73/139/89 75/145/92
f 45/146/94 67/127/80 66/126/79
f 76/147/93 45/148/94 66/149/79
f 68/133/82 70/135/85 77/150/95
f 36/131/84 68/133/82 77/150/95
f 64/123/77 71/136/86 70/151/85 69/152/83
f 42/153/96 73/139/89 39/141/91
f 42/153/96 47/154/97 73/139/89
f 73/139/89 48/155/98 75/145/92
f 75/145/92 48/155/98 76/147/93
f 45/148/94 76/147/93 46/156/99
f 44/157/100 67/127/80 45/146/94
f 43/158/101 67/127/80 44/157/100
f 47/154/97 48/155/98 73/139/89
f 46/156/99 76/147/93 48/155/98
f 36/131/84 77/150/95 50/159/102 41/160/103
f 71/136/86 67/127/80 49/161/104 52/162/105
f 71/136/86 52/162/105 51/163/106 70/151/85
f 70/135/85 51/164/106 50/159/102 77/150/95
f 49/161/104 67/127/80 43/158/101
o debris02_debris02-geometry.001
v -3.730216 -3.075219 1.148184
v -7.468351 -3.052665 1.149433
v -7.468351 -1.745821 1.909375
v -4.065853 -5.102570 1.152036
v -5.444153 -5.234794 1.153286
v -6.939814 -5.103545 1.153286
v -3.672834 -1.687517 2.899642
v -6.774748 -0.106482 4.440460
v -5.425494 0.227465 4.440460
v -4.154097 -0.105512 4.439211
v -5.498929 -1.718419 3.792192
v -6.707761 -2.882317 7.457210
v -5.419900 -3.129275 7.457210
v -4.312973 -2.833450 7.455960
v -6.488718 -0.625518 5.834689
v -5.425494 -0.387337 5.834689
v -4.520848 -0.624541 5.833440
vt 0.3388 0.6694
vt 0.2436 0.6698
vt 0.2436 0.6929
vt 0.3302 0.6336
vt 0.2951 0.6312
vt 0.2571 0.6336
vt 0.3402 0.6940
vt 0.2613 0.7219
vt 0.8953 0.0607
vt 0.8953 0.0607
vt 0.8953 0.0607
vt 0.2956 0.7278
vt 0.3280 0.7220
vt 0.8953 0.0607
vt 0.8537 0.0207
vt 0.8981 0.0122
vt 0.5347 0.4974
vt 0.5027 0.3379
vt 0.5021 0.4974
vt 0.9361 0.0224
vt 0.4678 0.3379
vt 0.4741 0.4974
vt 0.6293 0.3231
vt 0.6697 0.4120
vt 0.6822 0.2821
vt 0.8613 0.0983
vt 0.8979 0.1065
vt 0.9398 0.3289
vt 0.9054 0.3289
vt 0.9127 0.2934
vt 0.9398 0.2934
vt 0.9290 0.0984
vt 0.0628 0.8560
vt 0.1369 0.9231
vt 0.1026 0.9103
vt 0.1748 0.8842
vt 0.9628 0.2934
vt 0.9722 0.3289
vt 0.5406 0.3379
vt 0.6916 0.4337
vt 0.7409 0.4319
vt 0.2177 0.8003
vt 0.2178 0.8501
vt 0.6180 0.3570
vn 0.0027 0.5027 -0.8645
vn -0.0004 -0.0020 -1.0000
vn 0.1347 0.8144 -0.5644
vn -0.1345 0.5435 -0.8285
vn 0.1863 0.7137 -0.6752
vn 0.1491 0.7727 -0.6171
vn -0.0026 0.1200 0.9928
vn -0.4413 -0.0218 0.8971
vn -0.0086 -0.1480 0.9890
vn -0.0021 -0.8293 -0.5588
vn 0.4353 0.0031 0.9003
vn 0.5555 -0.6742 -0.4867
vn -0.3325 0.4182 0.8453
vn -0.6844 0.5586 -0.4685
vn -0.0036 0.2104 0.9776
vn -0.0221 0.9722 -0.2331
vn -0.6437 0.7618 -0.0728
vn 0.2046 0.4804 0.8529
vn 0.6556 0.7503 -0.0846
vn 0.8217 0.4569 -0.3406
vn -0.5242 -0.7003 -0.4845
vn -0.7255 0.0954 -0.6815
vn 0.7008 0.2305 -0.6751
usemtl bomber2T-03a-mat
s off
f 78/165/107 79/166/107 80/167/107
f 78/165/108 81/168/108 82/169/108 83/170/108 79/166/108
f 84/171/109 80/167/109 85/172/109
f 84/173/110 85/174/110 86/175/110
f 84/171/111 86/176/111 87/177/111
f 78/165/112 80/167/112 84/171/112
s 1
f 88/178/113 89/179/114 90/180/115
f 89/181/114 82/182/116 90/183/115
f 88/178/113 90/180/115 91/184/117
f 90/183/115 81/185/118 91/186/117
f 92/187/119 80/188/120 89/189/114
f 88/178/113 92/190/119 89/179/114
f 88/178/113 93/191/121 92/190/119
f 86/192/122 85/193/123 92/194/119 93/195/121
f 88/178/113 91/184/117 94/196/124
f 91/197/117 87/198/125 94/199/124
f 91/197/117 84/200/126 87/198/125
f 88/178/113 94/196/124 93/191/121
f 93/195/121 94/201/124 87/202/125 86/192/122
f 89/181/114 83/203/127 82/182/116
f 89/189/114 79/204/128 83/205/127
f 89/189/114 80/188/120 79/204/128
f 90/183/115 82/182/116 81/185/118
f 81/206/118 78/207/129 84/200/126 91/197/117
f 92/187/119 85/208/123 80/188/120
o debris02_debris02-geometry
v -0.730475 2.005759 -5.964877
v -2.030977 0.648780 -9.458229
v -0.727914 2.039433 -12.116602
v 0.106152 2.063021 -12.157791
v 0.106152 1.993413 -6.000848
v -1.666449 2.577276 -10.577491
v -1.335428 2.682478 -10.287612
v -0.989731 2.789816 -10.577491
v -1.011843 2.836780 -12.145674
v -1.357540 2.594431 -13.385407
v -2.575339 4.894335 -13.282778
v -1.681403 3.306355 -10.782467
v -1.545871 3.349919 -10.577491
v -1.395663 3.395619 -10.782467
v -2.351802 5.649386 -14.549918
v -2.331486 5.275999 -13.282778
v -1.898621 5.106875 -13.282778
v -2.487334 5.605821 -14.344944
v -2.201594 5.695085 -14.344944
vt 0.2768 0.5892
vt 0.2510 0.6654
vt 0.2769 0.7234
vt 0.3128 0.7243
vt 0.3128 0.5900
vt 0.2157 0.3017
vt 0.1740 0.3290
vt 0.2084 0.4053
vt 0.2284 0.3152
vt 0.9085 0.1638
vt 0.9566 0.1402
vt 0.9204 0.1675
vt 0.9260 0.1405
vt 0.7854 0.8397
vt 0.7860 0.7982
vt 0.8138 0.6771
vt 0.8138 0.8401
vt 0.0710 0.1557
vt 0.0494 0.1366
vt 0.0942 0.0888
vt 0.2643 0.2458
vt 0.8900 0.1853
vt 0.8888 0.1602
vt 0.9013 0.1868
vt 0.5353 0.9053
vt 0.5302 0.8904
vt 0.5688 0.8916
vt 0.5691 0.8727
vt 0.5681 0.8720
vt 0.2797 0.2095
vt 0.2128 0.2391
vt 0.5992 0.8856
vt 0.9165 0.1934
vt 0.2318 0.2963
vt 0.8743 0.2464
vt 0.5967 0.9474
vt 0.2803 0.2213
vt 0.8575 0.2383
vt 0.8892 0.2472
vt 0.6228 0.9618
vt 0.8787 0.2675
vt 0.8539 0.2644
vt 0.6279 0.9607
vt 0.6254 0.8245
vt 0.6960 0.8611
vt 0.6446 0.8805
vt 0.6201 0.8611
vn 0.7264 -0.6873 -0.0035
vn 0.0280 -0.9996 -0.0055
vn -0.0152 -0.9998 -0.0113
vn -0.7331 0.4127 0.5406
vn -0.4672 -0.8557 0.2225
vn -0.2899 -0.0265 0.9567
vn -0.2759 0.8376 0.4715
vn 0.5989 -0.0750 0.7973
vn 0.5444 0.8094 0.2203
vn 0.8578 0.4700 -0.2079
vn 0.7961 -0.2317 -0.5591
vn 0.1674 -0.4749 -0.8640
vn 0.2875 -0.7396 -0.6085
vn -0.9937 0.0569 0.0964
vn -0.8581 0.1770 0.4820
vn -0.2263 0.5386 0.8116
vn 0.6611 0.6675 0.3427
vn -0.2163 0.4552 -0.8637
vn -0.2981 0.8197 0.4891
vn 0.7149 0.6629 0.2227
vn -0.8088 0.5255 -0.2640
vn 0.3879 0.8994 -0.2017
usemtl bomber2T-03a-mat
s off
f 95/209/130 96/210/130 97/211/130
f 95/209/131 97/211/131 98/212/131
f 99/213/132 95/209/132 98/212/132
s 1
f 100/214/133 96/215/134 95/216/135
f 100/214/133 95/216/135 101/217/136
f 101/218/136 99/219/137 102/220/138
f 101/218/136 95/221/135 99/219/137
f 103/222/139 102/223/138 99/224/137 98/225/140
f 104/226/141 97/227/142 96/228/134
f 105/229/143 96/215/134 100/214/133
f 106/230/144 100/231/133 101/218/136
f 106/230/144 101/218/136 107/232/145
f 107/232/145 101/218/136 102/220/138
f 108/233/146 102/234/138 103/235/139
f 103/235/139 98/236/140 97/237/142
f 109/238/147 104/239/141 96/215/134
f 103/235/139 97/237/142 104/240/141
f 107/232/145 102/220/138 108/241/146
f 105/229/143 100/214/133 106/242/144
f 110/243/148 107/232/145 108/241/146
f 110/243/148 106/230/144 107/232/145
f 108/233/146 103/235/139 111/244/149
f 112/245/150 96/215/134 105/229/143
f 110/243/148 105/246/143 106/230/144
f 110/243/148 108/241/146 111/247/149
f 109/238/147 96/215/134 112/245/150
f 113/248/151 103/235/139 104/240/141
f 111/244/149 103/235/139 113/248/151
f 110/243/148 111/247/149 113/249/151
f 110/243/148 112/250/150 105/246/143
f 113/248/151 104/240/141 109/251/147
f 110/252/148 113/253/151 109/254/147
f 110/252/148 109/254/147 112/255/150
