# Blender v2.77 (sub 0) OBJ File: ''
# www.blender.org
mtllib Low Poly.mtl
o detail2_detail2-geometry
v -1.176066 1.517946 4.157694
v 0.208988 -1.315097 11.588184
v 0.208988 0.828926 9.915893
v 0.208989 2.101225 4.117357
v -6.492079 0.080918 5.142944
v -6.711123 -2.175880 6.765466
v -4.316335 -2.127013 6.764215
v -5.447514 -4.528357 0.461545
v -4.524210 0.081894 5.141694
v -3.676194 -0.981082 2.207900
v 0.208988 -2.234280 10.302930
v -1.010050 -1.417463 9.555106
v 0.208989 -1.605784 8.170460
v 0.208990 -1.938974 1.644546
v -4.071444 2.248599 -7.960955
v -6.985549 2.247626 -7.959705
v -0.733835 2.712190 -6.656614
v -4.069212 -4.396132 0.460295
v -3.733575 -2.368783 0.456442
v -6.943174 -4.397108 0.461545
v -6.486482 1.154884 -12.706824
v -3.733574 -1.214590 -5.819092
v -5.366025 -2.765303 -0.925709
v 1.594043 1.517946 4.139317
v 1.428025 -1.417463 9.536729
v 4.094173 -0.981082 2.189524
v 4.734313 -2.127013 6.745840
v 4.942188 0.081894 5.123319
v 6.910057 0.080918 5.124569
v 7.129099 -2.175880 6.747089
v 5.865491 -4.528356 0.443170
v 1.151816 2.712190 -6.674991
v 4.489425 2.248600 -7.979328
v 7.403531 2.247626 -7.978078
v 4.151554 -2.368783 0.438068
v 4.487191 -4.396131 0.441921
v 7.361153 -4.397107 0.443170
v 4.151555 -1.214589 -5.837466
v 6.904463 1.154885 -12.725199
v 5.784005 -2.765302 -0.944084
v -4.518613 1.155861 -12.708075
v 0.208991 2.676006 -6.706685
v -2.355161 6.355810 -15.241653
v -2.034337 1.355211 -10.149964
v 0.208991 -0.277675 -10.203673
v -5.428853 -2.667762 -9.013348
v -6.514701 -5.486681 -8.081597
v -6.674075 -6.395136 -7.967112
v -0.731272 2.745862 -12.808339
v -2.997477 -3.488651 -16.728798
v 0.208992 2.745611 -12.863622
v 0.208992 1.526505 -12.270646
v 0.208992 0.294718 -12.887786
v 2.773145 6.355810 -15.260027
v 2.452318 1.355212 -10.168340
v 4.936595 1.155862 -12.726446
v 5.846835 -2.667760 -9.031722
v 6.932682 -5.486681 -8.099970
v 7.092056 -6.395134 -7.985486
v 1.149256 2.745863 -12.826713
v 3.415460 -3.488649 -16.747168
vt 0.9607 0.1235
vt 0.9883 0.0997
vt 0.9883 0.1300
vt 0.7922 0.2765
vt 0.8138 0.2371
vt 0.8138 0.2767
vt 0.8953 0.0607
vt 0.8537 0.0207
vt 0.8981 0.0122
vt 0.5347 0.4974
vt 0.5027 0.3379
vt 0.5021 0.4974
vt 0.9361 0.0224
vt 0.9290 0.0984
vt 0.0628 0.8560
vt 0.1748 0.8842
vt 0.1369 0.9231
vt 0.1092 0.7730
vt 0.1364 0.7905
vt 0.1352 0.7719
vt 0.1225 0.7419
vt 0.1095 0.7544
vt 0.1510 0.7715
vt 0.1519 0.7907
vt 0.1714 0.7777
vt 0.4203 0.4629
vt 0.3866 0.5344
vt 0.3985 0.5679
vt 0.1672 0.6781
vt 0.1511 0.6778
vt 0.9398 0.3289
vt 0.9722 0.3289
vt 0.9744 0.6274
vt 0.9398 0.6273
vt 0.2366 0.9165
vt 0.4247 0.9636
vt 0.2148 0.4657
vt 0.1022 0.4240
vt 0.1627 0.5498
vt 0.8138 0.6047
vt 0.7929 0.6761
vt 0.7835 0.6044
vt 0.2177 0.8003
vt 0.2178 0.8501
vt 0.5406 0.3379
vt 0.4678 0.3379
vt 0.6180 0.3570
vt 0.6073 0.5858
vt 0.6697 0.4120
vt 0.6768 0.5708
vt 0.6916 0.4337
vt 0.3784 0.8948
vt 0.2251 0.0241
vt 0.1907 0.0607
vt 0.1760 0.0375
vt 0.1566 0.0544
vt 0.1262 0.0241
vt 0.7264 0.1068
vt 0.7244 0.0591
vt 0.8155 0.0800
vt 0.1349 0.6775
vt 0.9607 0.1235
vt 0.7922 0.2765
vt 0.1352 0.7719
vt 0.1510 0.7715
vt 0.1714 0.7777
vt 0.3985 0.5679
vt 0.1672 0.6781
vt 0.1511 0.6778
vt 0.1748 0.8842
vt 0.0628 0.8560
vt 0.1369 0.9231
vt 0.9361 0.0224
vt 0.8953 0.0607
vt 0.9290 0.0984
vt 0.8537 0.0207
vt 0.8981 0.0122
vt 0.5027 0.3379
vt 0.5347 0.4974
vt 0.5021 0.4974
vt 0.7929 0.6761
vt 0.7835 0.6044
vt 0.1022 0.4240
vt 0.2148 0.4657
vt 0.1627 0.5498
vt 0.2366 0.9165
vt 0.4247 0.9636
vt 0.9398 0.3289
vt 0.9398 0.6273
vt 0.9744 0.6274
vt 0.9722 0.3289
vt 0.7244 0.0591
vt 0.7264 0.1068
vt 0.2177 0.8003
vt 0.2178 0.8501
vt 0.4678 0.3379
vt 0.5406 0.3379
vt 0.3784 0.8948
vt 0.6073 0.5858
vt 0.6180 0.3570
vt 0.6697 0.4120
vt 0.6768 0.5708
vt 0.6916 0.4337
vt 0.1566 0.0544
vt 0.1760 0.0375
vt 0.1262 0.0241
vt 0.1907 0.0607
vt 0.2251 0.0241
vt 0.5636 0.6157
vt 0.5234 0.9305
vt 0.3806 0.9158
vt 0.2084 0.4053
vt 0.8138 0.6771
vt 0.8743 0.2464
vt 0.9013 0.1868
vt 0.9165 0.1934
vt 0.1740 0.3290
vt 0.9701 0.8232
vt 0.9116 0.8823
vt 0.8954 0.8432
vt 0.9701 0.7939
vt 0.3720 0.8439
vt 0.2251 0.0852
vt 0.3151 0.7702
vt 0.4788 0.7320
vt 0.3289 0.7856
vt 0.0548 0.5530
vt 0.0908 0.5898
vt 0.0788 0.5434
vt 0.3447 0.7530
vt 0.0556 0.7538
vt 0.1262 0.0852
vt 0.7035 0.5843
vt 0.4590 0.8922
vt 0.4593 0.3378
vt 0.4593 0.1790
vt 0.3634 0.1846
vt 0.3924 0.3685
vt 0.9630 0.7484
vt 0.9399 0.7483
vt 0.2797 0.2095
vt 0.2128 0.2391
vt 0.8900 0.1853
vt 0.1315 0.2959
vt 0.1282 0.2645
vt 0.0708 0.2247
vt 0.5353 0.9053
vt 0.5688 0.8916
vt 0.5967 0.9474
vt 0.7860 0.7982
vt 0.8138 0.8401
vt 0.7854 0.8397
vt 0.0222 0.0956
vt 0.0222 0.0532
vt 0.0494 0.0647
vt 0.0494 0.1366
vt 0.0222 0.1376
vt 0.1262 0.1528
vt 0.1729 0.0836
vt 0.2251 0.1527
vt 0.0584 0.2309
vt 0.1267 0.3112
vt 0.5920 0.7746
vt 0.5354 0.8357
vt 0.5047 0.8331
vt 0.0582 0.1878
vt 0.1239 0.2455
vt 0.2084 0.4053
vt 0.9013 0.1868
vt 0.8743 0.2464
vt 0.1740 0.3290
vt 0.9116 0.8823
vt 0.9701 0.8232
vt 0.9701 0.7939
vt 0.5636 0.6157
vt 0.5234 0.9305
vt 0.3806 0.9158
vt 0.4593 0.3378
vt 0.4593 0.1790
vt 0.3720 0.8439
vt 0.1262 0.0852
vt 0.2251 0.0852
vt 0.4788 0.7320
vt 0.3151 0.7702
vt 0.3289 0.7856
vt 0.0908 0.5898
vt 0.0548 0.5530
vt 0.0788 0.5434
vt 0.3447 0.7530
vt 0.0556 0.7538
vt 0.7035 0.5843
vt 0.4590 0.8922
vt 0.5688 0.8916
vt 0.5967 0.9474
vt 0.8900 0.1853
vt 0.2128 0.2391
vt 0.2797 0.2095
vt 0.7854 0.8397
vt 0.0494 0.1366
vt 0.0494 0.0647
vt 0.1282 0.2645
vt 0.1315 0.2959
vt 0.0708 0.2247
vt 0.9630 0.7484
vt 0.9399 0.7483
vt 0.0584 0.2309
vt 0.5920 0.7746
vt 0.0582 0.1878
vt 0.1729 0.0836
vt 0.1262 0.1528
vt 0.2251 0.1527
vn -0.6021 0.7670 0.2219
vn 0.0013 -0.0125 0.9999
vn 0.0005 0.7336 0.6796
vn 0.0008 0.9887 0.1497
vn -0.5946 0.6940 0.4061
vn -0.5739 -0.2318 0.7854
vn 0.5373 -0.2221 0.8136
vn 0.0044 -0.9642 -0.2650
vn 0.5087 0.7318 0.4536
vn 0.7357 0.0198 0.6770
vn 0.0012 -0.9685 0.2492
vn -0.9229 -0.2411 0.3001
vn 0.0002 -0.9996 -0.0277
vn 0.0004 -0.9977 0.0672
vn 0.1292 0.9418 -0.3105
vn -0.7853 0.6177 -0.0415
vn -0.1512 0.9793 0.1348
vn 0.5681 -0.8189 -0.0816
vn 0.7554 -0.6430 0.1261
vn -0.6583 -0.7467 -0.0951
vn -0.5580 0.2155 -0.8014
vn 0.5165 -0.7862 -0.3392
vn -0.0492 -0.9647 -0.2586
vn 0.6028 0.7665 0.2215
vn 0.9231 -0.2435 0.2976
vn -0.7349 0.0205 0.6778
vn -0.5373 -0.2221 0.8136
vn -0.5087 0.7318 0.4536
vn 0.5946 0.6940 0.4061
vn 0.5739 -0.2318 0.7854
vn -0.0044 -0.9643 -0.2649
vn 0.1535 0.9787 0.1361
vn -0.1298 0.9416 -0.3107
vn 0.7853 0.6177 -0.0415
vn -0.7552 -0.6433 0.1256
vn -0.5681 -0.8189 -0.0816
vn 0.6583 -0.7467 -0.0951
vn -0.5170 -0.7858 -0.3394
vn 0.5580 0.2155 -0.8014
vn 0.0492 -0.9647 -0.2586
vn 0.5301 0.2194 -0.8190
vn 0.0020 0.9849 0.1729
vn -0.2170 0.6159 -0.7573
vn -0.9760 -0.2151 -0.0340
vn 0.0007 -0.9996 0.0269
vn -0.0035 -0.8943 -0.4474
vn 0.0043 -0.9642 -0.2650
vn -0.0207 0.3670 -0.9300
vn -0.0491 -0.9647 -0.2586
vn -0.1993 -0.7151 -0.6700
vn 0.0893 0.3516 -0.9319
vn -0.3331 -0.6227 -0.7080
vn -0.0082 0.5234 -0.8520
vn -0.0043 0.1982 -0.9801
vn -0.0039 -0.2338 -0.9723
vn 0.2169 0.6159 -0.7574
vn 0.9761 -0.2148 -0.0327
vn -0.5301 0.2194 -0.8190
vn 0.0035 -0.8943 -0.4474
vn 0.0208 0.3670 -0.9300
vn -0.0044 -0.9643 -0.2648
vn 0.0491 -0.9648 -0.2584
vn 0.1993 -0.7151 -0.6700
vn -0.0967 0.3476 -0.9327
vn 0.3326 -0.6223 -0.7086
usemtl bomber2T-03c-mat
s 1
f 1/1/1 2/2/2 3/3/3
f 1/4/1 3/5/3 4/6/4
f 5/7/5 6/8/6 7/9/7
f 6/10/6 8/11/8 7/12/7
f 5/7/5 7/13/7 9/14/9
f 7/15/7 10/16/10 9/17/9
f 11/18/11 2/19/2 12/20/12
f 13/21/13 11/22/11 12/20/12
f 12/23/12 2/24/2 1/25/1
f 14/26/14 13/27/13 12/28/12
f 12/23/12 1/29/1 10/30/10
f 5/31/5 9/32/9 15/33/15 16/34/16
f 9/17/9 10/35/10 15/36/15
f 1/37/1 15/38/15 10/39/10
f 4/40/4 17/41/17 1/42/1
f 18/43/18 19/44/19 10/16/10 7/15/7
f 6/10/6 20/45/20 8/11/8
f 7/12/7 8/11/8 18/46/18
f 5/47/5 21/48/21 6/49/6
f 6/49/6 21/50/21 20/51/20
f 18/43/18 22/52/22 19/44/19
f 20/53/20 23/54/23 8/55/8
f 8/55/8 23/56/23 18/57/18
f 10/58/10 19/59/19 14/60/14
f 12/23/12 10/30/10 14/61/14
f 2/2/2 24/62/24 3/3/3
f 3/5/3 24/63/24 4/6/4
f 2/19/2 11/18/11 25/64/25
f 11/22/11 13/21/13 25/64/25
f 2/24/2 25/65/25 24/66/24
f 13/27/13 14/26/14 25/67/25
f 24/68/24 25/65/25 26/69/26
f 26/70/26 27/71/27 28/72/28
f 27/73/27 29/74/29 28/75/28
f 30/76/30 29/74/29 27/77/27
f 31/78/31 30/79/30 27/80/27
f 32/81/32 4/40/4 24/82/24
f 33/83/33 24/84/24 26/85/26
f 26/86/26 28/72/28 33/87/33
f 29/88/29 34/89/34 33/90/33 28/91/28
f 26/69/26 25/65/25 14/61/14
f 35/92/35 26/93/26 14/60/14
f 36/94/36 27/71/27 26/70/26 35/95/35
f 31/78/31 27/80/27 36/96/36
f 37/97/37 30/79/30 31/78/31
f 38/98/38 36/94/36 35/95/35
f 39/99/39 29/100/29 30/101/30
f 39/102/39 30/101/30 37/103/37
f 40/104/40 31/105/31 36/106/36
f 40/107/40 37/108/37 31/105/31
f 5/47/5 16/109/16 21/48/21
f 22/52/22 41/110/41 15/111/15
f 1/37/1 17/112/17 15/38/15
f 4/40/4 42/113/42 17/41/17
f 43/114/43 17/115/17 42/116/42
f 17/112/17 44/117/44 15/38/15
f 15/118/15 44/119/44 45/120/45
f 15/118/15 45/120/45 22/121/22
f 18/43/18 46/122/46 22/52/22
f 23/54/23 20/53/20 46/123/46
f 8/124/47 47/125/48 23/126/49
f 23/127/49 48/128/50 8/129/47
f 8/124/47 48/130/50 47/125/48
f 23/127/49 47/131/48 48/128/50
f 46/132/46 18/57/18 23/56/23
f 20/51/20 21/50/21 46/133/46
f 46/122/46 41/134/41 22/52/22
f 19/135/19 22/136/22 45/137/45
f 19/135/19 45/137/45 14/138/14
f 41/139/41 21/140/21 16/34/16 15/33/15
f 43/141/43 49/142/51 44/117/44
f 43/114/43 44/143/44 17/115/17
f 44/144/44 49/145/51 50/146/52
f 42/147/42 49/148/51 43/149/43
f 42/150/42 51/151/53 49/152/51
f 52/153/54 53/154/55 49/155/51
f 52/153/54 49/156/51 51/157/53
f 41/158/41 46/159/46 21/160/21
f 50/161/52 45/162/45 44/144/44
f 50/163/52 53/164/55 45/165/45
f 50/166/52 49/145/51 53/167/55
f 42/113/42 4/40/4 32/81/32
f 32/168/32 24/84/24 33/83/33
f 32/169/32 54/170/56 42/116/42
f 55/171/57 32/168/32 33/83/33
f 55/172/57 33/173/33 45/120/45
f 45/120/45 33/173/33 38/174/38
f 34/175/34 29/100/29 39/99/39
f 56/176/58 38/98/38 33/177/33
f 45/137/45 35/178/35 14/138/14
f 38/179/38 35/178/35 45/137/45
f 57/180/59 36/94/36 38/98/38
f 36/106/36 57/181/59 40/104/40
f 37/108/37 40/107/40 57/182/59
f 58/183/60 31/184/61 40/185/62
f 59/186/63 40/187/62 31/188/61
f 59/189/63 31/184/61 58/183/60
f 58/190/60 40/187/62 59/186/63
f 39/102/39 37/103/37 57/191/59
f 56/192/58 57/180/59 38/98/38
f 60/193/64 42/147/42 54/194/56
f 55/195/57 54/170/56 32/169/32
f 60/196/64 54/197/56 55/171/57
f 51/151/53 42/150/42 60/198/64
f 60/199/64 52/153/54 51/157/53
f 53/154/55 52/153/54 60/200/64
f 60/201/64 55/202/57 61/203/65
f 56/204/58 33/90/33 34/89/34 39/205/39
f 45/162/45 61/206/65 55/202/57
f 53/164/55 61/207/65 45/165/45
f 60/201/64 61/208/65 53/167/55
f 57/209/59 56/210/58 39/211/39
