# Blender v2.77 (sub 0) OBJ File: ''
# www.blender.org
mtllib Mid Poly.mtl
o detail1_detail1-geometry
v -1.368292 0.757763 8.417260
v -1.174741 0.187411 9.916937
v -0.757693 1.366874 8.459853
v 0.157812 0.828926 9.944685
v 0.157813 1.434794 8.447491
v -1.008725 -1.417462 9.574710
v -1.174740 1.517946 4.177299
v -0.645945 2.045453 4.214186
v 0.157813 2.101225 4.146150
v -5.500964 -1.011984 3.120054
v -6.490753 0.080918 5.162549
v -6.709797 -2.175879 6.785069
v -5.421937 -2.422837 6.785069
v -5.446187 -4.528356 0.481151
v -4.315011 -2.127012 6.783820
v -4.522884 0.081895 5.161300
v -3.674870 -0.981081 2.227505
v -4.067887 -4.396130 0.479901
v 0.157812 -2.234280 10.331722
v 0.157812 -1.677082 11.126204
v 0.157812 -1.315097 11.616977
v -0.848689 -1.407038 10.406680
v -0.431643 -2.069442 9.524229
v 0.157812 -2.399045 9.484071
v -0.319894 -1.818177 8.705668
v 0.157813 -2.117911 8.667598
v -0.340646 -1.467282 8.226048
v 0.157813 -1.605783 8.199252
v 0.157813 -1.911645 4.263237
v -1.624276 -1.065490 3.314675
v -1.923780 -0.344186 3.365113
v -3.593570 0.328987 1.977567
v -3.593570 0.332457 -0.287464
v -5.427527 2.390177 -7.940098
v -6.984224 2.247625 -7.940098
v -6.776784 0.599952 3.768321
v -7.470387 0.889862 -6.169026
v -7.470387 -1.039385 1.237239
v -4.070118 2.248599 -7.941346
v -1.084946 2.360308 1.721243
v 0.157814 2.813303 -3.943635
v -1.084944 2.855312 -3.924638
v 0.157814 2.318299 1.702244
v -7.470387 -2.346228 0.477298
v -6.941848 -4.397106 0.481151
v -3.732249 -2.368783 0.476048
v -7.470387 -1.192034 -5.798236
v -6.941846 -2.621250 -5.795677
v -5.943927 -3.331939 0.152457
v -5.364700 -2.765302 -0.906105
v -4.953032 -3.516109 0.070458
v -4.067885 -2.620273 -5.796927
v -3.732248 -1.214589 -5.799484
v -5.515475 -4.007143 0.673917
v -6.672749 -6.395134 -7.947504
v -6.513375 -5.486681 -8.061988
v 0.157814 -1.938973 1.673340
v 0.157815 -1.886159 -5.581528
v 1.490365 0.139733 9.907117
v 1.683919 0.710084 8.407440
v 1.073318 1.319196 8.450032
v 1.324349 -1.465140 9.564889
v 1.490367 1.470268 4.167480
v 0.961572 1.997775 4.204367
v 1.164314 -1.454716 10.396859
v 0.747267 -2.117120 9.514409
v 0.635521 -1.865855 8.695848
v 0.656273 -1.514960 8.216228
v 1.939902 -1.113168 3.304857
v 2.239406 -0.391864 3.355295
v 3.990496 -1.028759 2.217686
v 4.630637 -2.174690 6.774002
v 4.838511 0.034217 5.151481
v 4.383514 -4.443808 0.470084
v 5.737563 -2.470514 6.775250
v 5.816590 -1.059660 3.110237
v 6.806380 0.033240 5.152731
v 7.025423 -2.223557 6.775250
v 5.761816 -4.576033 0.471333
v 1.400574 2.312630 1.711425
v 3.909199 0.281309 1.967749
v 3.909199 0.284780 -0.297282
v 1.400574 2.807634 -3.934456
v 5.743159 2.342500 -7.949913
v 7.299854 2.199948 -7.949913
v 7.092411 0.552274 3.758503
v 7.786016 0.842185 -6.178842
v 7.786016 -1.087062 1.227422
v 4.385748 2.200922 -7.951161
v 4.047878 -2.416460 0.466230
v 7.786016 -2.393905 0.467481
v 7.257475 -4.444784 0.471333
v 4.047878 -1.262266 -5.809301
v 5.680327 -2.812978 -0.915921
v 5.268660 -3.563786 0.060641
v 4.383515 -2.667950 -5.806746
v 7.257476 -2.668927 -5.805493
v 6.259554 -3.379616 0.142640
v 7.786016 -1.239711 -5.808052
v 5.831102 -4.054820 0.664099
v 6.988380 -6.442811 -7.957320
v 6.829006 -5.534357 -8.071804
v -3.732248 -0.363380 -5.886679
v -6.485156 1.154885 -12.687216
v -6.943797 -0.657472 -9.335665
v -5.421934 1.393065 -12.687216
v -4.517288 1.155861 -12.688467
v -0.732509 2.712190 -6.637009
v 0.157815 2.676005 -6.677889
v -2.033010 1.355211 -10.130359
v -1.337461 3.388908 -10.959741
v -1.562665 0.219696 -10.130357
v -1.668482 3.283706 -11.249618
v -5.427527 -2.667761 -8.993740
v -4.522881 -2.428604 -8.994987
v -6.490751 -2.429581 -8.993740
v -4.069836 -0.656496 -9.336913
v 0.157815 -0.277675 -10.174877
v -2.333520 5.982425 -13.954906
v -2.353836 6.355808 -15.222044
v -0.991764 3.496245 -11.249618
v -0.729947 2.745862 -12.788730
v 0.157816 2.745611 -12.834826
v 0.157816 1.526505 -12.241851
v -0.729947 0.654328 -12.839992
v 0.157816 0.294718 -12.858991
v -2.965481 -3.440157 -15.032755
v -2.996150 -3.488650 -16.709188
v -2.524041 -3.338853 -15.032755
v 4.047879 -0.411057 -5.896496
v 1.048140 2.664512 -6.646827
v 2.348642 1.307534 -10.140173
v 1.653093 3.341230 -10.969557
v 1.878295 0.172019 -10.140174
v 1.984114 3.236028 -11.259436
v 4.832920 1.108184 -12.698278
v 5.737566 1.345388 -12.697031
v 6.800787 1.107207 -12.697031
v 7.259427 -0.705149 -9.345479
v 4.838512 -2.476280 -9.004803
v 5.743159 -2.715436 -9.003554
v 4.385466 -0.704173 -9.346728
v 6.806381 -2.477257 -9.003554
v 1.307396 3.448567 -11.259436
v 2.649153 5.934747 -13.964720
v 1.045579 2.698185 -12.798545
v 2.669468 6.308131 -15.231861
v 1.045579 0.606651 -12.849811
v 3.281113 -3.487833 -15.042569
v 3.311784 -3.536326 -16.719002
v 2.839673 -3.386529 -15.042570
vt 0.1824 0.7435
vt 0.1875 0.7736
vt 0.1960 0.7438
vt 0.7922 0.2765
vt 0.8138 0.2371
vt 0.8138 0.2767
vt 0.7951 0.2370
vt 0.1510 0.7715
vt 0.1944 0.6480
vt 0.7951 0.3889
vt 0.2062 0.6482
vt 0.8138 0.3906
vt 0.8953 0.0607
vt 0.8613 0.0983
vt 0.8537 0.0207
vt 0.8981 0.0122
vt 0.5347 0.4974
vt 0.5027 0.3379
vt 0.5021 0.4974
vt 0.9361 0.0224
vt 0.9290 0.0984
vt 0.0628 0.8560
vt 0.1748 0.8842
vt 0.1369 0.9231
vt 0.4678 0.3379
vt 0.4741 0.4974
vt 0.1132 0.7917
vt 0.1304 0.8013
vt 0.1412 0.8074
vt 0.1364 0.7905
vt 0.1272 0.8073
vt 0.1519 0.7907
vt 0.1505 0.8043
vt 0.1714 0.7777
vt 0.9607 0.1235
vt 0.9883 0.0997
vt 0.9883 0.1300
vt 0.1092 0.7730
vt 0.1352 0.7719
vt 0.3635 0.5712
vt 0.3731 0.5935
vt 0.3759 0.5721
vt 0.1095 0.7544
vt 0.3635 0.5514
vt 0.3731 0.5523
vt 0.1225 0.7419
vt 0.3634 0.5333
vt 0.3735 0.5339
vt 0.3992 0.4341
vt 0.4203 0.4629
vt 0.3866 0.5344
vt 0.3985 0.5679
vt 0.1672 0.6781
vt 0.1511 0.6778
vt 0.1349 0.6775
vt 0.4103 0.4348
vt 0.1809 0.9164
vt 0.2366 0.9165
vt 0.9722 0.3289
vt 0.9398 0.6273
vt 0.9398 0.3289
vt 0.9001 0.6273
vt 0.9054 0.3289
vt 0.6180 0.3570
vt 0.6073 0.5858
vt 0.6697 0.4120
vt 0.4247 0.9636
vt 0.8145 0.1921
vt 0.7292 0.1519
vt 0.7264 0.1068
vt 0.7867 0.1287
vt 0.1919 0.6096
vt 0.2103 0.5922
vt 0.7835 0.4549
vt 0.1653 0.6003
vt 0.1627 0.5498
vt 0.8138 0.6047
vt 0.7835 0.6044
vt 0.8138 0.4553
vt 0.2148 0.4657
vt 0.6293 0.3231
vt 0.6822 0.2821
vt 0.6916 0.4337
vt 0.7409 0.4319
vt 0.8979 0.1065
vt 0.2177 0.8003
vt 0.2178 0.8501
vt 0.5406 0.3379
vt 0.6768 0.5708
vt 0.7035 0.5843
vt 0.1907 0.0607
vt 0.2251 0.0852
vt 0.1708 0.0802
vt 0.1566 0.0544
vt 0.1262 0.0852
vt 0.3784 0.8948
vt 0.2251 0.0241
vt 0.1760 0.0375
vt 0.1736 0.0195
vt 0.0548 0.5530
vt 0.0908 0.5898
vt 0.0788 0.5434
vt 0.3151 0.7702
vt 0.4788 0.7320
vt 0.3289 0.7856
vt 0.1262 0.0241
vt 0.8320 0.0939
vt 0.1276 0.6545
vt 0.1183 0.5964
vt 0.1100 0.6544
vt 0.8155 0.0800
vt 0.7244 0.0591
vt 0.4593 0.3378
vt 0.3634 0.1846
vt 0.3924 0.3685
vt 0.1875 0.7736
vt 0.1824 0.7435
vt 0.1960 0.7438
vt 0.7922 0.2765
vt 0.7951 0.2370
vt 0.1510 0.7715
vt 0.1944 0.6480
vt 0.7951 0.3889
vt 0.2062 0.6482
vt 0.1364 0.7905
vt 0.1519 0.7907
vt 0.1714 0.7777
vt 0.9607 0.1235
vt 0.1092 0.7730
vt 0.1352 0.7719
vt 0.3759 0.5721
vt 0.1095 0.7544
vt 0.3731 0.5523
vt 0.1225 0.7419
vt 0.3735 0.5339
vt 0.3866 0.5344
vt 0.4203 0.4629
vt 0.3985 0.5679
vt 0.1672 0.6781
vt 0.1511 0.6778
vt 0.1349 0.6775
vt 0.4103 0.4348
vt 0.1748 0.8842
vt 0.0628 0.8560
vt 0.1369 0.9231
vt 0.4678 0.3379
vt 0.5021 0.4974
vt 0.4741 0.4974
vt 0.9361 0.0224
vt 0.8953 0.0607
vt 0.9290 0.0984
vt 0.8981 0.0122
vt 0.8613 0.0983
vt 0.8537 0.0207
vt 0.5027 0.3379
vt 0.5347 0.4974
vt 0.7835 0.4549
vt 0.1919 0.6096
vt 0.2103 0.5922
vt 0.7867 0.1287
vt 0.7264 0.1068
vt 0.8145 0.1921
vt 0.1653 0.6003
vt 0.7292 0.1519
vt 0.1627 0.5498
vt 0.7835 0.6044
vt 0.2148 0.4657
vt 0.1809 0.9164
vt 0.2366 0.9165
vt 0.9398 0.6273
vt 0.9722 0.3289
vt 0.9398 0.3289
vt 0.9001 0.6273
vt 0.9054 0.3289
vt 0.6073 0.5858
vt 0.6180 0.3570
vt 0.6697 0.4120
vt 0.4247 0.9636
vt 0.1276 0.6545
vt 0.8320 0.0939
vt 0.7244 0.0591
vt 0.4593 0.3378
vt 0.8979 0.1065
vt 0.2177 0.8003
vt 0.2178 0.8501
vt 0.6293 0.3231
vt 0.6822 0.2821
vt 0.6916 0.4337
vt 0.7409 0.4319
vt 0.5406 0.3379
vt 0.3784 0.8948
vt 0.1708 0.0802
vt 0.1566 0.0544
vt 0.1262 0.0852
vt 0.2251 0.0852
vt 0.1907 0.0607
vt 0.6768 0.5708
vt 0.7035 0.5843
vt 0.1760 0.0375
vt 0.1262 0.0241
vt 0.1736 0.0195
vt 0.2251 0.0241
vt 0.0908 0.5898
vt 0.0548 0.5530
vt 0.0788 0.5434
vt 0.4788 0.7320
vt 0.3151 0.7702
vt 0.3289 0.7856
vt 0.5636 0.6157
vt 0.9744 0.6274
vt 0.3806 0.9158
vt 0.5989 0.7176
vt 0.6592 0.6711
vt 0.9128 0.7483
vt 0.9399 0.7483
vt 0.5441 0.9458
vt 0.1022 0.4240
vt 0.2084 0.4053
vt 0.8138 0.6771
vt 0.7929 0.6761
vt 0.1740 0.3290
vt 0.9085 0.1638
vt 0.9260 0.1405
vt 0.9566 0.1402
vt 0.9701 0.8232
vt 0.9116 0.8823
vt 0.8954 0.8432
vt 0.2157 0.3017
vt 0.5406 0.1791
vt 0.5022 0.0982
vt 0.5027 0.1791
vt 0.3720 0.8439
vt 0.4793 0.0981
vt 0.4678 0.1791
vt 0.0405 0.5635
vt 0.0556 0.7538
vt 0.4890 0.7428
vt 0.3388 0.7981
vt 0.3447 0.7530
vt 0.7015 0.6614
vt 0.4590 0.8922
vt 0.5291 0.0982
vt 0.5234 0.9305
vt 0.4506 0.8486
vt 0.2251 0.1527
vt 0.1729 0.0836
vt 0.2095 0.0918
vt 0.1262 0.1528
vt 0.1418 0.0918
vt 0.4593 0.1790
vt 0.9701 0.7939
vt 0.3634 0.0684
vt 0.4044 0.0694
vt 0.9630 0.7484
vt 0.1262 0.1937
vt 0.2251 0.1937
vt 0.1728 0.2233
vt 0.8743 0.2464
vt 0.8900 0.1853
vt 0.9013 0.1868
vt 0.2803 0.2213
vt 0.2643 0.2458
vt 0.2284 0.3152
vt 0.9204 0.1675
vt 0.9165 0.1934
vt 0.5353 0.9053
vt 0.5688 0.8916
vt 0.5967 0.9474
vt 0.2797 0.2095
vt 0.2128 0.2391
vt 0.7860 0.7982
vt 0.8138 0.8401
vt 0.7854 0.8397
vt 0.0222 0.0956
vt 0.0494 0.1366
vt 0.0222 0.1376
vt 0.0494 0.0647
vt 0.2019 0.2680
vt 0.1552 0.2693
vt 0.0222 0.0532
vt 0.6228 0.9618
vt 0.0584 0.2309
vt 0.1267 0.3112
vt 0.1315 0.2959
vt 0.1282 0.2645
vt 0.0708 0.2247
vt 0.0582 0.1878
vt 0.1239 0.2455
vt 0.5920 0.7746
vt 0.5354 0.8357
vt 0.5047 0.8331
vt 0.7858 0.0122
vt 0.8482 0.1034
vt 0.8376 0.1088
vt 0.8010 0.0157
vt 0.6332 0.7710
vt 0.3314 0.0263
vt 0.2679 0.0484
vt 0.3254 0.0651
vt 0.1022 0.4240
vt 0.7929 0.6761
vt 0.2084 0.4053
vt 0.1740 0.3290
vt 0.9260 0.1405
vt 0.9085 0.1638
vt 0.9116 0.8823
vt 0.9701 0.8232
vt 0.8954 0.8432
vt 0.2157 0.3017
vt 0.9744 0.6274
vt 0.5636 0.6157
vt 0.3806 0.9158
vt 0.5441 0.9458
vt 0.9399 0.7483
vt 0.9128 0.7483
vt 0.5989 0.7176
vt 0.6592 0.6711
vt 0.4593 0.1790
vt 0.9701 0.7939
vt 0.4044 0.0694
vt 0.3720 0.8439
vt 0.4793 0.0981
vt 0.5027 0.1791
vt 0.4678 0.1791
vt 0.5022 0.0982
vt 0.5406 0.1791
vt 0.0556 0.7538
vt 0.0405 0.5635
vt 0.4890 0.7428
vt 0.3388 0.7981
vt 0.3447 0.7530
vt 0.4590 0.8922
vt 0.7015 0.6614
vt 0.5234 0.9305
vt 0.4506 0.8486
vt 0.5291 0.0982
vt 0.1418 0.0918
vt 0.1262 0.1528
vt 0.1729 0.0836
vt 0.2251 0.1527
vt 0.2095 0.0918
vt 0.9204 0.1675
vt 0.9013 0.1868
vt 0.8743 0.2464
vt 0.9165 0.1934
vt 0.5688 0.8916
vt 0.5353 0.9053
vt 0.5967 0.9474
vt 0.2128 0.2391
vt 0.2797 0.2095
vt 0.8900 0.1853
vt 0.2803 0.2213
vt 0.2643 0.2458
vt 0.2284 0.3152
vt 0.7860 0.7982
vt 0.7854 0.8397
vt 0.0494 0.1366
vt 0.0494 0.0647
vt 0.2019 0.2680
vt 0.1552 0.2693
vt 0.6228 0.9618
vt 0.9630 0.7484
vt 0.2251 0.1937
vt 0.1262 0.1937
vt 0.1728 0.2233
vt 0.1267 0.3112
vt 0.0584 0.2309
vt 0.1315 0.2959
vt 0.1282 0.2645
vt 0.0708 0.2247
vt 0.7858 0.0122
vt 0.8376 0.1088
vt 0.5920 0.7746
vt 0.0582 0.1878
vt 0.8010 0.0157
vt 0.6332 0.7710
vt 0.2679 0.0484
vt 0.3314 0.0263
vt 0.3254 0.0651
vn -0.9479 0.2993 0.1096
vn -0.7957 0.3519 0.4930
vn -0.4099 0.8704 0.2729
vn 0.0152 0.7767 0.6297
vn 0.0263 0.9641 0.2644
vn -0.8904 -0.4543 0.0301
vn -0.8045 0.5403 0.2466
vn -0.3865 0.9087 0.1580
vn 0.0282 0.9900 0.1384
vn -0.0032 0.0963 0.9953
vn -0.2596 0.5798 0.7723
vn -0.4413 -0.0218 0.8971
vn -0.0086 -0.1480 0.9890
vn -0.0071 -0.7240 -0.6897
vn 0.4430 0.0167 0.8963
vn 0.2519 0.5967 0.7619
vn 0.6192 -0.4112 0.6690
vn 0.5088 -0.8483 -0.1464
vn -0.0142 -0.9114 0.4113
vn 0.4990 -0.7049 0.5041
vn 0.0052 -0.1794 0.9838
vn -0.8135 -0.3845 0.4362
vn -0.6287 -0.7765 -0.0420
vn -0.0300 -0.9969 -0.0728
vn -0.5945 -0.6781 -0.4322
vn -0.0334 -0.8465 -0.5313
vn -0.3144 -0.9326 -0.1771
vn -0.0496 -0.9466 -0.3185
vn -0.0129 -0.9993 0.0340
vn -0.5529 -0.7804 0.2922
vn -0.7547 -0.1674 0.6344
vn -0.3889 0.8625 0.3238
vn -0.0038 0.9957 0.0920
vn 0.0018 0.9997 -0.0254
vn -0.6344 0.7691 -0.0778
vn -0.2704 0.9077 0.3210
vn -0.9813 0.1909 -0.0250
vn -0.9904 0.1057 0.0895
vn 0.6881 0.7231 -0.0611
vn -0.3413 0.9320 0.1222
vn 0.0208 0.9996 0.0180
vn -0.3856 0.9224 -0.0207
vn 0.0194 0.9960 0.0875
vn -0.9884 -0.1485 0.0314
vn -0.4601 -0.8746 -0.1526
vn 0.7336 -0.6612 0.1572
vn -0.9811 -0.1718 -0.0888
vn -0.6019 -0.7930 -0.0936
vn -0.2082 -0.8914 -0.4026
vn -0.0587 -0.8099 -0.5836
vn 0.0221 -0.9172 -0.3978
vn 0.5947 -0.7959 -0.1134
vn 0.5997 -0.7134 -0.3625
vn -0.0374 -0.3836 -0.9227
vn -0.1654 -0.7071 -0.6874
vn -0.0037 0.2839 -0.9589
vn -0.0068 -0.9861 0.1658
vn -0.0061 -0.9753 -0.2208
vn 0.8034 0.3450 0.4853
vn 0.9479 0.2993 0.1096
vn 0.4337 0.8601 0.2685
vn 0.8904 -0.4543 0.0301
vn 0.8045 0.5403 0.2466
vn 0.4153 0.8958 0.1587
vn 0.8076 -0.3936 0.4392
vn 0.6019 -0.7975 -0.0403
vn 0.5618 -0.6994 -0.4418
vn 0.2735 -0.9444 -0.1825
vn 0.5447 -0.7879 0.2873
vn 0.7547 -0.1674 0.6344
vn -0.6214 -0.4119 0.6665
vn -0.4430 0.0167 0.8963
vn -0.2519 0.5967 0.7619
vn -0.5088 -0.8483 -0.1464
vn 0.0086 -0.1480 0.9890
vn 0.0032 0.0963 0.9953
vn 0.2596 0.5798 0.7723
vn 0.4413 -0.0218 0.8971
vn 0.0071 -0.7240 -0.6897
vn 0.3594 0.9252 0.1218
vn 0.3889 0.8625 0.3238
vn 0.0038 0.9957 0.0920
vn 0.4039 0.9145 -0.0214
vn -0.0018 0.9997 -0.0254
vn 0.6344 0.7691 -0.0778
vn 0.2704 0.9077 0.3210
vn 0.9813 0.1909 -0.0250
vn 0.9904 0.1057 0.0895
vn -0.6881 0.7231 -0.0611
vn -0.7373 -0.6574 0.1556
vn 0.9884 -0.1485 0.0314
vn 0.4601 -0.8746 -0.1526
vn -0.6044 -0.7106 -0.3601
vn 0.0587 -0.8099 -0.5836
vn -0.0221 -0.9172 -0.3978
vn -0.5947 -0.7959 -0.1134
vn 0.6019 -0.7930 -0.0936
vn 0.2082 -0.8914 -0.4026
vn 0.9811 -0.1718 -0.0888
vn 0.0374 -0.3836 -0.9227
vn 0.1654 -0.7071 -0.6875
vn 0.0037 0.2839 -0.9588
vn 0.4084 0.7017 -0.5838
vn -0.5690 0.0567 -0.8204
vn -0.7721 -0.3758 -0.5124
vn 0.0029 0.6759 -0.7370
vn 0.5899 0.0300 -0.8069
vn -0.3811 0.9243 0.0182
vn 0.0237 0.9988 0.0440
vn -0.9880 0.1233 -0.0931
vn -0.2791 0.8911 0.3578
vn -0.6847 -0.7255 0.0696
vn -0.6825 0.5041 0.5292
vn 0.0297 -0.7916 -0.6103
vn 0.5282 -0.6280 -0.5714
vn -0.5140 -0.6213 -0.5914
vn 0.8131 -0.3180 -0.4876
vn -0.0103 -0.9995 0.0294
vn -0.2912 0.8979 0.3303
vn -0.1449 0.6167 -0.7737
vn 0.4462 0.8759 0.1839
vn -0.0983 0.1178 -0.9882
vn 0.0029 0.4037 -0.9149
vn -0.0033 0.0332 -0.9994
vn -0.2310 0.5417 -0.8082
vn 0.0086 0.0979 -0.9952
vn -0.6447 -0.7254 0.2410
vn -0.2603 -0.4011 -0.8783
vn 0.5490 -0.8310 0.0900
vn -0.4084 0.7017 -0.5838
vn 0.4060 0.9137 0.0195
vn 0.9880 0.1233 -0.0931
vn 0.2831 0.8909 0.3552
vn 0.6737 -0.7352 0.0741
vn 0.6825 0.5041 0.5292
vn -0.5900 0.0300 -0.8069
vn -0.0029 0.6759 -0.7370
vn 0.5690 0.0567 -0.8204
vn 0.7721 -0.3758 -0.5124
vn -0.5282 -0.6280 -0.5714
vn -0.0297 -0.7916 -0.6103
vn -0.8131 -0.3180 -0.4876
vn 0.5140 -0.6213 -0.5914
vn -0.4331 0.8830 0.1811
vn 0.2912 0.8979 0.3303
vn 0.1033 0.1046 -0.9891
vn 0.1449 0.6167 -0.7737
vn 0.2394 0.5453 -0.8033
vn 0.6441 -0.7254 0.2426
vn 0.2593 -0.4010 -0.8786
vn -0.5513 -0.8292 0.0923
usemtl bomber2T-03b-mat
s 1
f 1/1/1 2/2/2 3/3/3
f 3/4/3 4/5/4 5/6/5
f 3/4/3 2/7/2 4/5/4
f 6/8/6 1/1/1 7/9/7
f 8/10/8 3/4/3 5/6/5
f 1/1/1 3/3/3 8/11/8 7/9/7
f 8/10/8 5/6/5 9/12/9
f 10/13/10 11/14/11 12/15/12
f 10/13/10 12/15/12 13/16/13
f 12/17/12 14/18/14 13/19/13
f 10/13/10 13/16/13 15/20/15
f 10/13/10 15/20/15 16/21/16
f 15/22/15 17/23/17 16/24/16
f 13/19/13 18/25/18 15/26/15
f 19/27/19 20/28/20 21/29/21 22/30/22
f 20/31/20 19/27/19 21/29/21
f 22/32/22 21/33/21 2/34/2
f 2/35/2 21/36/21 4/37/4
f 23/38/23 19/27/19 22/30/22
f 6/8/6 22/32/22 2/34/2
f 23/38/23 22/30/22 6/39/6
f 24/40/24 19/41/19 23/42/23
f 6/8/6 2/34/2 1/1/1
f 25/43/25 23/38/23 6/39/6
f 26/44/26 24/40/24 23/42/23
f 26/44/26 23/42/23 25/45/25
f 27/46/27 25/43/25 6/39/6
f 28/47/28 26/44/26 25/45/25
f 28/47/28 25/45/25 27/48/27
f 29/49/29 28/47/28 27/48/27
f 30/50/30 27/51/27 6/52/6
f 6/8/6 7/53/7 31/54/31
f 6/8/6 31/54/31 30/55/30
f 27/51/27 30/56/30 29/49/29
f 16/24/16 32/57/32 33/58/33
f 16/59/16 34/60/34 11/61/11
f 11/61/11 35/62/35 36/63/36
f 36/64/36 37/65/37 38/66/38
f 16/24/16 33/58/33 39/67/39
f 7/68/7 32/69/32 17/70/17
f 17/70/17 31/71/31 7/68/7
f 7/72/7 8/11/8 40/73/40
f 40/74/40 8/10/8 9/12/9
f 40/73/40 32/75/32 7/72/7
f 40/73/40 33/76/33 32/75/32
f 41/77/41 42/78/42 40/74/40 9/12/9 43/79/43
f 40/73/40 42/80/42 33/76/33
f 11/81/11 36/64/36 38/66/38
f 11/81/11 38/66/38 12/82/12
f 12/82/12 38/66/38 44/83/44
f 12/82/12 44/83/44 45/84/45
f 10/13/10 16/21/16 11/85/11
f 16/24/16 17/23/17 32/57/32
f 18/86/18 46/87/46 17/23/17 15/22/15
f 12/17/12 45/88/45 14/18/14
f 13/19/13 14/18/14 18/25/18
f 37/65/37 47/89/47 44/83/44 38/66/38
f 44/83/44 48/90/48 45/84/45
f 49/91/49 48/92/48 50/93/50
f 51/94/51 50/93/50 52/95/52
f 18/86/18 53/96/53 46/87/46
f 45/97/45 49/91/49 54/98/54
f 14/99/14 45/97/45 54/98/54
f 49/91/49 45/97/45 48/92/48
f 49/100/49 55/101/55 54/102/54
f 54/103/54 56/104/56 51/105/51
f 54/98/54 51/94/51 18/106/18
f 54/98/54 18/106/18 14/99/14
f 52/95/52 18/106/18 51/94/51
f 17/70/17 30/107/30 31/71/31
f 30/108/30 57/109/57 29/110/29
f 17/70/17 57/111/57 30/107/30
f 17/70/17 46/112/46 57/111/57
f 46/113/46 58/114/58 57/115/57
f 59/116/59 60/117/60 61/118/61
f 4/5/4 61/119/61 5/6/5
f 59/120/59 61/119/61 4/5/4
f 60/117/60 62/121/62 63/122/63
f 61/119/61 64/123/64 5/6/5
f 60/117/60 63/122/63 64/124/64 61/118/61
f 5/6/5 64/123/64 9/12/9
f 21/29/21 20/28/20 19/27/19 65/125/65
f 21/33/21 65/126/65 59/127/59
f 21/36/21 59/128/59 4/37/4
f 19/27/19 66/129/66 65/125/65
f 65/126/65 62/121/62 59/127/59
f 65/125/65 66/129/66 62/130/62
f 19/41/19 24/40/24 66/131/66
f 59/127/59 62/121/62 60/117/60
f 66/129/66 67/132/67 62/130/62
f 24/40/24 26/44/26 66/131/66
f 66/131/66 26/44/26 67/133/67
f 67/132/67 68/134/68 62/130/62
f 26/44/26 28/47/28 67/133/67
f 67/133/67 28/47/28 68/135/68
f 28/47/28 29/49/29 68/135/68
f 68/136/68 69/137/69 62/138/62
f 63/139/63 62/121/62 70/140/70
f 70/140/70 62/121/62 69/141/69
f 69/142/69 68/136/68 29/49/29
f 71/143/71 72/144/72 73/145/73
f 74/146/74 75/147/75 72/148/72
f 72/149/72 76/150/76 73/151/73
f 75/152/75 76/150/76 72/149/72
f 77/153/77 76/150/76 78/154/78
f 78/154/78 76/150/76 75/152/75
f 79/155/79 78/156/78 75/147/75
f 64/123/64 80/157/80 9/12/9
f 64/124/64 63/158/63 80/159/80
f 70/160/70 71/161/71 63/162/63
f 81/163/81 80/159/80 63/158/63
f 81/164/81 63/162/63 71/161/71
f 82/165/82 80/159/80 81/163/81
f 41/77/41 43/79/43 9/12/9 80/157/80 83/166/83
f 83/167/83 80/159/80 82/165/82
f 81/168/81 73/145/73 82/169/82
f 84/170/84 73/171/73 77/172/77
f 85/173/85 77/172/77 86/174/86
f 87/175/87 86/176/86 88/177/88
f 82/169/82 73/145/73 89/178/89
f 57/109/57 69/179/69 29/110/29
f 69/180/69 71/161/71 70/160/70
f 57/111/57 71/161/71 69/180/69
f 90/181/90 71/161/71 57/111/57
f 58/114/58 90/182/90 57/115/57
f 73/151/73 76/150/76 77/183/77
f 71/143/71 73/145/73 81/168/81
f 74/184/74 72/144/72 71/143/71 90/185/90
f 86/176/86 77/186/77 88/177/88
f 88/177/88 77/186/77 78/187/78
f 88/177/88 78/187/78 91/188/91
f 91/188/91 78/187/78 92/189/92
f 79/155/79 75/147/75 74/146/74
f 92/190/92 78/156/78 79/155/79
f 93/191/93 74/184/74 90/185/90
f 94/192/94 95/193/95 96/194/96
f 97/195/97 98/196/98 94/192/94
f 87/175/87 88/177/88 91/188/91 99/197/99
f 97/198/97 91/188/91 92/189/92
f 95/193/95 100/199/100 74/200/74
f 74/200/74 100/199/100 79/201/79
f 74/200/74 96/194/96 95/193/95
f 98/196/98 92/202/92 100/199/100
f 92/202/92 79/201/79 100/199/100
f 101/203/101 98/204/98 100/205/100
f 102/206/102 100/207/100 95/208/95
f 92/202/92 98/196/98 97/195/97
f 36/64/36 35/209/35 37/65/37
f 11/61/11 34/60/34 35/62/35
f 16/59/16 39/210/39 34/60/34
f 33/58/33 103/211/103 39/67/39
f 35/209/35 104/212/104 37/65/37
f 104/212/104 105/213/105 47/89/47 37/65/37
f 34/60/34 104/214/104 35/62/35
f 39/210/39 106/215/106 34/60/34
f 103/211/103 107/216/107 39/67/39
f 42/80/42 103/217/103 33/76/33
f 42/80/42 108/218/108 103/217/103
f 109/219/109 108/220/108 42/78/42 41/77/41
f 108/218/108 110/221/110 103/217/103
f 111/222/111 108/223/108 109/224/109
f 103/225/103 110/226/110 112/227/112
f 113/228/113 110/221/110 108/218/108
f 44/83/44 47/89/47 48/90/48
f 48/229/48 114/230/114 50/231/50
f 18/86/18 52/232/52 53/96/53
f 50/231/50 115/233/115 52/234/52
f 50/235/50 56/236/56 49/100/49
f 51/105/51 56/237/56 50/238/50
f 49/100/49 56/236/56 55/101/55
f 54/103/54 55/239/55 56/104/56
f 47/89/47 116/240/116 48/90/48
f 50/231/50 114/230/114 115/233/115
f 52/232/52 117/241/117 53/96/53
f 47/89/47 105/213/105 116/240/116
f 48/229/48 116/242/116 114/230/114
f 53/96/53 107/243/107 103/211/103
f 52/232/52 115/244/115 117/241/117
f 105/245/105 114/246/114 116/247/116
f 117/248/117 115/249/115 114/246/114
f 117/248/117 114/246/114 105/245/105
f 53/96/53 117/241/117 107/243/107
f 46/113/46 53/250/53 58/114/58
f 103/225/103 112/227/112 53/251/53
f 53/250/53 118/252/118 58/114/58
f 53/250/53 112/253/112 118/252/118
f 34/60/34 106/215/106 104/214/104
f 39/210/39 107/254/107 106/215/106
f 107/255/107 104/256/104 106/257/106
f 104/256/104 107/255/107 117/248/117 105/245/105
f 119/258/119 113/259/113 111/260/111
f 120/261/120 110/221/110 119/262/119
f 119/262/119 110/221/110 113/228/113
f 113/228/113 108/218/108 111/263/111
f 111/222/111 109/224/109 121/264/121
f 119/258/119 111/260/111 121/265/121
f 121/266/121 122/267/122 119/268/119
f 120/269/120 122/270/122 110/221/110
f 121/271/121 123/272/123 122/273/122
f 121/271/121 109/219/109 123/272/123
f 124/274/124 122/275/122 123/276/123
f 124/274/124 125/277/125 122/275/122
f 110/221/110 122/278/122 125/279/125
f 124/274/124 126/280/126 125/277/125
f 119/268/119 122/267/122 120/281/120
f 127/282/127 112/283/112 110/284/110
f 110/284/110 125/285/125 128/286/128
f 128/287/128 125/285/125 126/288/126
f 129/289/129 126/290/126 118/291/118
f 127/292/127 118/293/118 112/294/112
f 127/292/127 129/295/129 118/293/118
f 127/282/127 110/284/110 128/286/128
f 128/296/128 126/290/126 129/289/129
f 127/297/127 128/298/128 129/299/129
f 130/300/130 83/167/83 82/165/82
f 109/219/109 41/77/41 83/166/83 131/301/131
f 131/302/131 83/167/83 130/300/130
f 132/303/132 131/302/131 130/300/130
f 131/304/131 133/305/133 109/224/109
f 132/306/132 130/307/130 134/308/134
f 132/303/132 135/309/135 131/302/131
f 89/310/89 73/171/73 84/170/84
f 84/170/84 77/172/77 85/173/85
f 85/311/85 86/176/86 87/175/87
f 130/312/130 82/169/82 89/178/89
f 136/313/136 130/312/130 89/178/89
f 137/314/137 89/310/89 84/170/84
f 138/315/138 84/170/84 85/173/85
f 138/316/138 85/311/85 87/175/87
f 138/316/138 87/175/87 99/197/99 139/317/139
f 93/318/93 90/182/90 58/114/58
f 118/252/118 93/318/93 58/114/58
f 134/308/134 130/307/130 93/319/93
f 134/320/134 93/318/93 118/252/118
f 96/321/96 74/184/74 93/191/93
f 140/322/140 94/323/94 96/324/96
f 99/197/99 91/188/91 97/198/97
f 141/325/141 97/326/97 94/323/94
f 102/327/102 94/328/94 98/204/98
f 102/329/102 95/208/95 94/330/94
f 102/327/102 98/204/98 101/203/101
f 101/331/101 100/207/100 102/206/102
f 142/332/142 96/321/96 93/191/93
f 141/325/141 94/323/94 140/322/140
f 143/333/143 99/197/99 97/198/97
f 136/334/136 93/191/93 130/312/130
f 140/335/140 96/321/96 142/332/142
f 143/336/143 97/326/97 141/325/141
f 139/317/139 99/197/99 143/333/143
f 140/337/140 142/338/142 141/339/141
f 141/339/141 139/340/139 143/341/143
f 141/339/141 142/338/142 139/340/139
f 142/332/142 93/191/93 136/334/136
f 109/224/109 133/305/133 144/342/144
f 133/343/133 145/344/145 144/345/144
f 146/346/146 144/347/144 145/348/145
f 146/349/146 147/350/147 132/303/132
f 135/351/135 145/344/145 133/343/133
f 132/303/132 147/352/147 145/353/145
f 132/303/132 145/353/145 135/309/135
f 131/302/131 135/309/135 133/354/133
f 109/219/109 144/355/144 123/272/123
f 123/272/123 144/355/144 146/356/146
f 146/357/146 124/274/124 123/276/123
f 148/358/148 124/274/124 146/357/146
f 146/359/146 132/303/132 148/360/148
f 126/280/126 124/274/124 148/358/148
f 146/346/146 145/348/145 147/361/147
f 136/362/136 89/310/89 137/314/137
f 138/363/138 136/364/136 137/365/137
f 138/363/138 139/340/139 142/338/142 136/364/136
f 137/314/137 84/170/84 138/315/138
f 134/366/134 149/367/149 132/368/132
f 148/369/148 132/368/132 150/370/150
f 118/293/118 149/371/149 134/372/134
f 126/290/126 151/373/151 118/291/118
f 148/369/148 150/374/150 126/288/126
f 151/375/151 149/371/149 118/293/118
f 132/368/132 149/367/149 150/370/150
f 126/290/126 150/376/150 151/373/151
f 150/377/150 149/378/149 151/379/151
