{"asset":{"version":"2.0","generator":"Blockbench 4.11.2 glTF exporter"},"scenes":[{"nodes":[3],"name":"blockbench_export"}],"scene":0,"nodes":[{"name":"beveled_cuboid","mesh":0},{"rotation":[0.7594908267142735,0.09998886423165011,-0.08390061909861268,0.6372884725784733],"translation":[0.75,0.8125,1.4375],"name":"cylinder","mesh":1},{"rotation":[0.7594908267142735,-0.09998886423165011,0.08390061909861268,0.6372884725784733],"translation":[-0.75,0.8125,1.4375],"name":"cylinder","mesh":2},{"children":[0,1,2]}],"bufferViews":[{"buffer":0,"byteOffset":0,"byteLength":1728,"target":34962,"byteStride":12},{"buffer":0,"byteOffset":1728,"byteLength":1728,"target":34962,"byteStride":12},{"buffer":0,"byteOffset":3456,"byteLength":1152,"target":34962,"byteStride":8},{"buffer":0,"byteOffset":4608,"byteLength":408,"target":34963},{"buffer":0,"byteOffset":5016,"byteLength":3744,"target":34962,"byteStride":12},{"buffer":0,"byteOffset":8760,"byteLength":3744,"target":34962,"byteStride":12},{"buffer":0,"byteOffset":12504,"byteLength":2496,"target":34962,"byteStride":8},{"buffer":0,"byteOffset":15000,"byteLength":864,"target":34963},{"buffer":0,"byteOffset":15864,"byteLength":3744,"target":34962,"byteStride":12},{"buffer":0,"byteOffset":19608,"byteLength":3744,"target":34962,"byteStride":12},{"buffer":0,"byteOffset":23352,"byteLength":2496,"target":34962,"byteStride":8},{"buffer":0,"byteOffset":25848,"byteLength":864,"target":34963}],"buffers":[{"byteLength":26712,"uri":"data:application/octet-stream;base64,"}],"accessors":[{"bufferView":0,"componentType":5126,"count":144,"max":[0.75,1.625,1.375],"min":[-0.75,0.125,-1.390625],"type":"VEC3"},{"bufferView":1,"componentType":5126,"count":144,"max":[1,1,1],"min":[-1,-1,-1],"type":"VEC3"},{"bufferView":2,"componentType":5126,"count":144,"max":[0.7890625,0.703125],"min":[0,0],"type":"VEC2"},{"bufferView":3,"componentType":5123,"count":204,"max":[143],"min":[0],"type":"SCALAR"},{"bufferView":4,"componentType":5126,"count":312,"max":[0.5163152813911438,0.5,0.7057462334632874],"min":[-0.5,-1.9430911540985107,-0.5],"type":"VEC3"},{"bufferView":5,"componentType":5126,"count":312,"max":[1,1,1],"min":[-1,-1,-1],"type":"VEC3"},{"bufferView":6,"componentType":5126,"count":312,"max":[0.8203125,0.8681236505508423],"min":[0,0],"type":"VEC2"},{"bufferView":7,"componentType":5123,"count":432,"max":[311],"min":[0],"type":"SCALAR"},{"bufferView":8,"componentType":5126,"count":312,"max":[0.5,0.5,0.7057462334632874],"min":[-0.5163152813911438,-1.9430911540985107,-0.5],"type":"VEC3"},{"bufferView":9,"componentType":5126,"count":312,"max":[1,1,1],"min":[-1,-1,-1],"type":"VEC3"},{"bufferView":10,"componentType":5126,"count":312,"max":[0.8203125,0.8681236505508423],"min":[0,0],"type":"VEC2"},{"bufferView":11,"componentType":5123,"count":432,"max":[311],"min":[0],"type":"SCALAR"}],"materials":[{"pbrMetallicRoughness":{"metallicFactor":0,"roughnessFactor":1,"baseColorTexture":{"index":0}},"alphaMode":"MASK","alphaCutoff":0.05,"doubleSided":true}],"textures":[{"sampler":0,"source":0,"name":"texture"}],"samplers":[{"magFilter":9728,"minFilter":9728,"wrapS":33071,"wrapT":33071}],"images":[{"mimeType":"image/png","uri":"data:image/png;base64,"}],"meshes":[{"primitives":[{"mode":4,"attributes":{"POSITION":0,"NORMAL":1,"TEXCOORD_0":2},"indices":3,"material":0}]},{"primitives":[{"mode":4,"attributes":{"POSITION":4,"NORMAL":5,"TEXCOORD_0":6},"indices":7,"material":0}]},{"primitives":[{"mode":4,"attributes":{"POSITION":8,"NORMAL":9,"TEXCOORD_0":10},"indices":11,"material":0}]}]}